<?xml version="1.0" encoding="UTF-8" standalone="no"?>
<!-- Created with Inkscape (http://www.inkscape.org/) -->

<svg
   xmlns:dc="http://purl.org/dc/elements/1.1/"
   xmlns:cc="http://creativecommons.org/ns#"
   xmlns:rdf="http://www.w3.org/1999/02/22-rdf-syntax-ns#"
   xmlns:svg="http://www.w3.org/2000/svg"
   xmlns="http://www.w3.org/2000/svg"
   xmlns:sodipodi="http://sodipodi.sourceforge.net/DTD/sodipodi-0.dtd"
   xmlns:inkscape="http://www.inkscape.org/namespaces/inkscape"
   id="svg3039"
   version="1.1"
   inkscape:version="0.48.4 r9939"
   width="70"
   height="70"
   sodipodi:docname="3dbar_gray.svg">
  <metadata
     id="metadata3045">
    <rdf:RDF>
      <cc:Work
         rdf:about="">
        <dc:format>image/svg+xml</dc:format>
        <dc:type
           rdf:resource="http://purl.org/dc/dcmitype/StillImage" />
      </cc:Work>
    </rdf:RDF>
  </metadata>
  <defs
     id="defs3043" />
  <sodipodi:namedview
     pagecolor="#ffffff"
     bordercolor="#666666"
     borderopacity="1"
     objecttolerance="10"
     gridtolerance="10"
     guidetolerance="10"
     inkscape:pageopacity="0"
     inkscape:pageshadow="2"
     inkscape:window-width="1920"
     inkscape:window-height="1176"
     id="namedview3041"
     showgrid="false"
     inkscape:zoom="5.9566667"
     inkscape:cx="120.18195"
     inkscape:cy="67.145495"
     inkscape:window-x="0"
     inkscape:window-y="24"
     inkscape:window-maximized="1"
     inkscape:current-layer="svg3039"
     height="100px"
     showguides="false">
    <sodipodi:guide
       position="0,0"
       orientation="0,300"
       id="guide3244" />
    <sodipodi:guide
       position="81.421377,-4.7006156"
       orientation="-94,0"
       id="guide3246" />
    <sodipodi:guide
       position="300,94"
       orientation="0,-300"
       id="guide3248" />
    <sodipodi:guide
       position="0,94"
       orientation="94,0"
       id="guide3250" />
  </sodipodi:namedview>
  <path
     style="fill:#0080c6;fill-opacity:1"
     d="m 38.90707,37.229201 c -0.877169,-0.33423 -3.219082,-1.30235 -5.204253,-2.15138 l -3.609401,-1.54368 0.05793,-0.74216 c 0.06972,-0.8932 0.804004,-3.85481 1.005757,-4.05657 0.07934,-0.0793 0.391356,0.42516 0.698179,1.12887 0.305105,0.69976 0.637865,1.24502 0.739467,1.21167 0.101602,-0.0333 0.208372,-0.38424 0.237266,-0.77975 0.08189,-1.12101 -0.625436,-2.30277 -2.693777,-4.50058 -3.658804,-3.88783 -3.946001,-5.73869 -1.647712,-10.61879 1.653073,-3.51007 1.791491,-5.8757706 0.343794,-5.8757706 -0.594953,0 -0.848116,0.31829 -1.030752,1.2958906 -0.08105,0.43382 -0.204942,0.84635 -0.275321,0.91673 -0.229947,0.22995 -1.705086,-0.3373 -4.108742,-1.5799703 -2.525033,-1.3054203 -3.314899,-1.8948403 -3.314899,-2.4736803 0,-0.48458 1.534426,-2.00279 2.694589,-2.66611 0.503146,-0.28767 1.307634,-0.61115 1.787751,-0.71884 0.752032,-0.16869 0.932237,-0.15695 1.301063,0.0847 0.235469,0.15428 0.428124,0.39396 0.428124,0.53262 0,0.2786 -0.647735,0.57955 -1.247382,0.57955 -0.552065,0 -1.300245,0.63565 -1.237972,1.05177 0.08787,0.5872 0.801443,0.93283 2.278405,1.10357 3.776625,0.43659 6.691514,3.2287706 8.02219,7.6844706 0.633511,2.12128 0.540828,2.52551 -0.81523,3.55559 -2.406897,1.82831 -2.88851,2.6025 -2.087255,3.35524 0.450805,0.42351 1.477332,0.87667 1.985881,0.87667 0.308741,0 0.348003,-0.0707 0.266287,-0.47924 -0.114242,-0.57121 0.23892,-1.15056 0.840878,-1.37943 0.890626,-0.33861 2.990065,1.18759 4.712073,3.42547 1.589159,2.06522 1.740638,2.97219 1.364559,8.17019 -0.117764,1.62767 -0.131497,2.88503 -0.03667,3.35758 0.144653,0.72087 0.178234,0.75546 0.733387,0.75546 0.534515,0 0.581792,0.0409 0.581792,0.50363 0,0.45602 -0.05556,0.50744 -0.587577,0.5438 -0.354004,0.0242 -1.221563,-0.20141 -2.182429,-0.56753 z m -6.211528,-23.73655 c 0,-0.27997 -0.109114,-0.77018 -0.242477,-1.08936 -0.315386,-0.75483 -1.239346,-2.09495 -1.444379,-2.09495 -0.417261,0 0.116194,2.26213 0.768068,3.25702 0.408203,0.62299 0.918788,0.58259 0.918788,-0.0727 z m -5.81447,-3.5322603 c 1.07603,-0.8464003 0.07604,-1.5762703 -2.014981,-1.4706803 -0.667384,0.0337 -1.272497,0.12035 -1.344695,0.19255 -0.238678,0.23868 0.198934,0.69627 1.113563,1.1644103 1.078267,0.5518903 1.652133,0.5809503 2.246113,0.11373 z"
     id="path3053"
     inkscape:connector-curvature="0"
     inkscape:export-filename="/home/pierremarijon/dev/3dbar/path3089.png"
     inkscape:export-xdpi="90"
     inkscape:export-ydpi="90" />
  <path
     style="fill:#0080c6;fill-opacity:1"
     d="m 18.308,44.797331 c -1.939544,-0.42525 -4.321809,-1.31441 -6.765228,-2.52506 -2.669409,-1.32262 -4.4375383,-2.51602 -4.6216273,-3.11937 -0.18659,-0.61155 -0.594689,-0.97663 -1.091726,-0.97663 -0.752599,0 -0.895977,0.34441 -0.778357,1.86967 0.116529,1.51111 -0.03241,1.99155 -0.617404,1.99155 -0.798542,0 -1.752148,-1.46757 -2.206894,-3.39633 -0.361675,-1.53402 -0.329271,-2.39539 0.105343,-2.8003 0.360148,-0.33553 0.598462,-0.40847 1.991863,-0.60962 0.995792,-0.14375 1.510912,-0.48473 1.510912,-1.00013 0,-0.57778 -0.621041,-0.9288 -1.93061,-1.09121 -1.159302,-0.14377 -1.93061,-0.51293 -1.93061,-0.92401 0,-0.38174 0.67501,-0.45588 1.594852,-0.17518 1.539894,0.46993 1.626636,0.27696 0.487487,-1.08443 -1.448421,-1.731 -2.000898,-3.68619 -1.317363,-4.66207 0.343871,-0.49095 0.773241,-0.47091 1.597501,0.0746 0.799953,0.52938 1.568001,0.57954 1.92793,0.12591 0.409802,-0.51649 0.211894,-2.11618 -0.434428,-3.51147 -0.429121,-0.9264 -0.560017,-1.45945 -0.618367,-2.51819 -0.06739,-1.22281 -0.03152,-1.42569 0.400704,-2.26637 0.396385,-0.77097 0.62709,-1.00149 1.398058,-1.39697 0.781926,-0.40109 1.081338,-0.46432 1.9550173,-0.41286 0.567425,0.0334 1.152903,0.16138 1.301063,0.28434 0.337399,0.28002 0.341551,1.20571 0.0155,3.4561 -0.28838,1.99041 -0.315462,3.34083 -0.07597,3.78832 0.248829,0.46494 1.092783,0.43301 1.40122,-0.053 0.131842,-0.20775 0.293935,-0.79323 0.360207,-1.30107 0.06627,-0.50783 0.345275,-1.56547 0.620006,-2.3503 0.751789,-2.14767 1.570685,-3.12116 3.048425,-3.62392 1.180729,-0.40172 2.985084,-0.25994 4.18915,0.32916 1.935443,0.94692 2.978277,2.48734 3.312981,4.89377 0.23887,1.71742 0.357178,1.92645 1.090336,1.92645 1.041871,0 2.431979,1.71211 3.281251,4.04132 0.675047,1.85138 0.15921,4.76343 -1.067401,6.02578 -0.878632,0.90423 -1.830807,1.24414 -3.483268,1.24346 -2.295235,-10e-4 -3.175669,-0.6897 -3.800951,-2.97351 -0.269831,-0.98553 -0.548913,-5.4008 -0.56942,-9.00857 -0.02567,-4.51579 -0.301301,-4.79082 -1.671239,-1.66756 -0.508956,1.16034 -1.065395,2.31108 -1.236533,2.5572 -0.449912,0.64702 -1.229094,1.07045 -2.346231,1.275 -2.553363,0.46753 -4.8684323,2.81963 -5.8545933,5.94825 -0.38094,1.20855 -0.437689,3.25753 -0.104975,3.79029 0.45982,0.73629 1.195563,0.18189 1.6493903,-1.24285 0.327337,-1.02764 0.808132,-1.90176 1.145282,-2.08219 0.190389,-0.1019 0.551345,-0.10549 0.964756,-0.01 1.275241,0.29574 1.399527,0.24674 1.363853,-0.53768 -0.02974,-0.65388 0.0026,-0.70805 0.503156,-0.84143 0.653469,-0.17415 0.786634,-0.53755 0.562866,-1.53604 -0.218108,-0.97325 -0.09575,-1.28851 0.500083,-1.28851 0.31634,0 0.608933,0.16421 0.892017,0.50064 0.524624,0.62348 1.368171,2.78214 1.891738,4.84101 0.558058,2.19449 0.446167,2.43347 -1.548001,3.30615 -2.566842,1.12329 -2.979097,1.59406 -1.700459,1.9418 0.519366,0.14125 1.809693,0.15443 4.742585,0.0484 6.062317,-0.21907 10.755562,-0.15649 12.970726,0.17297 2.005479,0.29828 3.876406,0.80659 4.519353,1.22786 0.447048,0.29292 0.513255,0.80423 0.123498,0.9538 -0.516463,0.19818 -1.010066,0.0882 -2.504456,-0.55823 -0.831001,-0.35945 -1.534448,-0.58954 -1.563215,-0.51132 -0.02877,0.0782 0.217842,0.53495 0.548017,1.01494 0.720658,1.04765 0.868897,1.55412 0.616808,2.1074 -0.30643,0.67255 -0.229444,0.73403 0.555057,0.44327 0.626055,-0.23203 0.819252,-0.24166 1.216578,-0.0606 l 0.472333,0.21521 -0.39716,0.3216 c -1.145159,0.9273 -7.56849,1.85547 -9.1739,1.32564 -0.461021,-0.15215 -1.219148,-0.77662 -2.552061,-2.10214 -1.410386,-1.40256 -2.207725,-2.05075 -3.112076,-2.52995 -1.154048,-0.6115 -1.308356,-0.64764 -3.035073,-0.71072 -2.650767,-0.0968 -2.819512,0.33145 -0.355721,0.90284 1.674579,0.38836 2.566081,0.87131 3.715895,2.01301 0.975032,0.96815 1.456031,1.86214 1.274851,2.36945 -0.157986,0.44237 -1.667465,0.50191 -3.353331,0.13229 l 0,0 z m 2.372672,-0.80005 c 0.440969,-0.32244 0.190475,-0.92994 -0.502909,-1.21966 -0.805985,-0.33676 -1.205124,-0.29494 -1.675637,0.17558 -0.482004,0.482 -0.506109,0.64506 -0.148258,1.00291 0.329851,0.32985 1.894157,0.35753 2.326804,0.0412 z m 8.895376,0.12074 c 0.441732,-0.16951 0.298979,-0.53317 -0.280058,-0.71345 -1.689586,-0.52605 -4.514003,-0.73948 -4.884383,-0.3691 -0.302417,0.30242 0.293859,0.72034 1.351916,0.94753 1.034617,0.22216 3.369918,0.30486 3.812525,0.13502 l 0,0 z m -5.533075,-3.37988 c 0.479456,-0.51707 0.565897,-1.2973 0.160942,-1.45269 -0.508373,-0.19508 -1.557214,-0.10183 -1.820947,0.16191 -0.314737,0.31473 -0.31604,0.32869 -0.07436,0.79647 0.545647,1.05612 1.073837,1.20666 1.734364,0.49431 z M 4.0577737,38.120611 c 0.394451,-0.78928 0.458731,-1.06581 0.331715,-1.42697 -0.122516,-0.34838 -0.267521,-0.44798 -0.652181,-0.44798 -0.619518,0 -0.918311,0.52613 -0.921775,1.62309 -0.0052,1.63563 0.499552,1.73796 1.242241,0.25186 l 0,0 z m 25.3401793,0.72564 c 0.259101,-0.24344 -0.62653,-0.55806 -1.570905,-0.55806 -0.950591,0 -1.826436,0.314 -1.570906,0.56318 0.326186,0.31809 2.802109,0.31405 3.141811,-0.005 l 0,0 z m -3.676657,-5.43434 c 0.552776,-0.36219 0.931135,-1.21732 1.050552,-2.37436 0.150739,-1.46052 -0.419852,-2.02936 -1.132804,-1.12932 -0.326225,0.41182 -0.35421,0.59041 -0.259226,1.65426 0.08429,0.94412 0.05469,1.23558 -0.142063,1.39888 -0.31905,0.26479 -0.884395,0.0853 -1.120408,-0.35568 -0.435766,-0.81423 0.137636,-2.17027 1.861058,-4.40122 1.403291,-1.81654 -0.255818,-2.96315 -2.652521,-1.83315 -1.111625,0.52411 -2.885518,2.13423 -2.885518,2.61912 0,0.28662 0.08155,0.31894 0.594682,0.23567 l 0.594679,-0.0965 -0.741644,0.82489 c -0.887097,0.98666 -1.04229,1.43311 -0.622214,1.78997 1.031025,0.87585 1.156469,1.03623 1.069793,1.36768 -0.07266,0.27784 0.01935,0.37841 0.472544,0.51654 0.897187,0.27345 3.374358,0.13622 3.91309,-0.21677 z M 6.6873707,31.678491 c 0.203012,-0.53396 0.06197,-1.56741 -0.273862,-2.0066 -0.205706,-0.26902 -0.258421,-0.27649 -0.404987,-0.0574 -0.221248,0.33065 -0.221152,1.77997 1.46e-4,2.19347 0.241017,0.45034 0.47526,0.40568 0.678703,-0.12942 l 0,0 z m 1.69556,-4.37239 c 1.1141093,-1.16851 1.3193393,-1.76568 0.7976553,-2.32098 -0.200764,-0.21371 -0.5909683,-0.46732 -0.8671213,-0.56359 -0.475344,-0.1657 -0.495197,-0.15501 -0.372623,0.2006 0.288889,0.83813 0.153997,1.53733 -0.476885,2.47188 -0.708897,1.05011 -0.742582,1.17739 -0.311596,1.17739 0.170612,0 0.724368,-0.43438 1.23057,-0.9653 z m 5.9819853,-3.77785 c 0.06352,-0.76764 -0.719843,-2.34929 -1.124921,-2.27128 -0.323123,0.0622 -0.55101,1.03731 -0.423057,1.81018 0.128197,0.77434 0.529859,1.20375 1.067383,1.14113 0.363122,-0.0423 0.436407,-0.146 0.480595,-0.68003 l 0,0 z m -5.592232,-0.46096 c 0.05702,-0.0923 -0.1684093,-0.32828 -0.5009523,-0.52449 -0.82447,-0.48644 -1.261696,-1.39876 -1.261696,-2.63265 0,-1.76035 0.962744,-2.029 1.9460993,-0.54305 0.246854,0.37303 0.51091,0.67823 0.58679,0.67823 0.257009,0 0.355481,-1.14975 0.151427,-1.76804 -0.150053,-0.45466 -0.355656,-0.67859 -0.789478,-0.85986 -1.0669123,-0.44578 -2.1832773,0.1042 -2.7516383,1.35561 -0.850782,1.87324 0.228213,4.46199 1.859763,4.46199 0.360807,0 0.7026653,-0.0755 0.7596853,-0.16774 z m 12.163402,-2.05666 c 0.371248,-0.66942 0.675994,-1.42848 0.677214,-1.68681 0.0029,-0.61893 -0.625332,-1.18702 -1.821765,-1.64728 -1.881522,-0.72382 -5.394817,-0.43295 -5.394817,0.44664 0,0.40154 0.782235,0.60115 2.899562,0.73992 2.550262,0.16714 2.640449,0.23707 2.640449,2.04764 0,0.73525 0.07164,1.31701 0.162181,1.31701 0.0892,0 0.46593,-0.5477 0.837176,-1.21712 z"
     id="path3055"
     inkscape:connector-curvature="0"
     inkscape:export-filename="/home/pierremarijon/dev/3dbar/path3089.png"
     inkscape:export-xdpi="90"
     inkscape:export-ydpi="90" />
  <path
     style="fill:#0080c6;fill-opacity:1"
     d="m 41.945078,62.810061 c -0.221933,-0.11406 -0.556123,-0.41294 -0.742644,-0.66419 -0.281615,-0.37935 -0.30701,-0.52731 -0.149738,-0.87249 0.272837,-0.59881 0.818161,-0.89534 1.992324,-1.08338 1.144122,-0.18322 1.692977,-0.4552 1.837504,-0.91057 0.213405,-0.67238 -0.560741,-1.03083 -2.746457,-1.2717 -1.599299,-0.17625 -1.938994,-0.36402 -1.716624,-0.9489 0.112667,-0.29633 0.0759,-0.49044 -0.144427,-0.76253 -0.56815,-0.70164 -2.821546,-0.64334 -7.747353,0.20043 -1.061835,0.18189 -2.006155,0.36101 -2.098489,0.39804 -0.09233,0.037 1.343033,0.0522 3.189703,0.0337 3.180778,-0.0319 4.448797,0.0761 4.448797,0.37902 0,0.6392 -4.608267,0.80887 -7.55456,0.27814 -1.94139,-0.34971 -5.361012,-1.19909 -6.142978,-1.52582 -0.314703,-0.13149 -0.572187,-0.35019 -0.572187,-0.486 0,-0.13581 0.4155,-0.64348 0.923335,-1.12815 0.507834,-0.48468 0.923335,-0.93593 0.923335,-1.00278 0,-0.27683 -0.543834,-0.27078 -2.69138,0.0299 -2.524466,0.35349 -7.569982,0.64615 -11.200618,0.64967 -1.570347,0.002 -2.392277,0.0634 -2.392277,0.18011 0,0.33418 -0.34245,-0.0335 -0.8413173,-0.90334 -0.644882,-1.12441 -0.656714,-1.69345 -0.04005,-1.92598 0.2539173,-0.0958 0.7221293,-0.21933 1.0404693,-0.27463 0.890855,-0.15474 1.351809,-0.53014 1.351809,-1.10089 0,-0.7534 -0.453092,-0.90546 -2.3530683,-0.78971 -1.871592,0.11402 -2.381651,-0.0818 -3.070592,-1.17883 -0.41169,-0.65555 -1.19087,-2.36872 -1.372894,-3.01856 -0.137878,-0.49224 0.333246,-0.7792 1.887942,-1.14995 1.952171,-0.46554 3.8620143,-0.1403 4.1896393,0.71348 0.05631,0.14673 0.01579,0.49619 -0.09004,0.77657 -0.105832,0.28038 -0.156337,0.54586 -0.112235,0.58997 0.0441,0.0441 0.376681,-0.0177 0.739064,-0.13727 0.819984,-0.27062 2.896111,-0.0387 6.136587,0.68566 4.381744,0.97941 7.536993,1.19688 11.448881,0.78912 1.716524,-0.17893 1.940091,-0.17114 2.187457,0.0762 0.244852,0.24485 0.252149,0.40632 0.06555,1.45046 -0.115484,0.64621 -0.160941,1.32942 -0.101015,1.51823 0.132334,0.41694 0.717532,0.58412 1.620663,0.46299 1.00907,-0.13535 1.297387,-0.48119 1.272904,-1.52689 -0.02562,-1.09418 0.588231,-2.43559 1.26049,-2.75447 0.580373,-0.2753 1.324247,-0.0924 3.403145,0.83696 3.224127,1.44126 5.401135,3.02051 5.210552,3.77986 -0.136985,0.54579 0.216441,0.63589 1.275967,0.3253 0.483079,-0.14161 0.939621,-0.21959 1.014537,-0.17329 0.07492,0.0463 0.01674,0.31522 -0.129277,0.59759 -0.399067,0.77171 -0.123735,0.92778 1.056972,0.59915 0.532089,-0.1481 0.999279,-0.23743 1.038196,-0.19851 0.03892,0.0389 -0.0662,0.37448 -0.233595,0.74569 -0.365455,0.81044 -0.257402,0.96958 0.477806,0.70372 0.304319,-0.11004 0.774581,-0.19842 1.045025,-0.19639 1.181482,0.009 3.403525,1.48681 4.351315,2.8942 1.035809,1.53809 0.750488,2.84915 -0.892811,4.10254 -1.169977,0.89237 -2.25291,1.12 -4.672527,0.98215 -2.331063,-0.1328 -2.668878,-0.0749 -2.808486,0.48134 -0.190897,0.7606 -1.85584,1.19599 -2.772331,0.72499 l 0,0 z m 10.743373,-3.26942 c 0.182642,-0.48039 0.07933,-1.39991 -0.220171,-1.95952 -0.17054,-0.31866 -0.18103,-0.319 -0.404798,-0.013 -0.233295,0.31905 -0.313717,1.68242 -0.127818,2.16686 0.15942,0.41544 0.56029,0.31194 0.752787,-0.19437 l 0,0 z m -0.99716,-3.4013 c 0.0912,0 0.141683,-0.16884 0.112178,-0.37521 -0.106826,-0.74715 -2.477691,-1.60917 -2.614813,-0.95071 -0.111737,0.53656 1.489932,1.59544 2.113231,1.39707 0.122968,-0.0391 0.2982,-0.0712 0.389404,-0.0712 z m -30.873197,-3.12958 c 0.70252,-0.11612 0.795655,-0.29517 0.29336,-0.56399 -0.695559,-0.37225 -2.853517,-0.17999 -2.853517,0.25423 0,0.33582 1.387138,0.50365 2.560157,0.30976 z m 21.1108,-2.23112 c 0,-0.38747 -0.491264,-0.75535 -2.23534,-1.67388 -2.341134,-1.23299 -2.296124,-0.80116 0.105214,1.00942 1.369412,1.03253 2.130126,1.26982 2.130126,0.66446 z m -21.232165,-1.86546 c 0.349061,-0.56479 -1.225334,-0.90389 -2.179074,-0.46933 -0.435688,0.19851 -0.515368,0.33296 -0.315677,0.53265 0.182786,0.18278 2.377071,0.12709 2.494751,-0.0633 l 0,0 z m 8.922781,-0.0935 c 0.157947,-0.4116 -0.275127,-0.59198 -1.252763,-0.52179 -1.674519,0.12022 -1.621054,0.79055 0.06305,0.79055 0.841422,0 1.109845,-0.0606 1.189709,-0.26876 z"
     id="path3057"
     inkscape:connector-curvature="0"
     inkscape:export-filename="/home/pierremarijon/dev/3dbar/path3089.png"
     inkscape:export-xdpi="90"
     inkscape:export-ydpi="90" />
  <path
     style="fill:#0080c6;fill-opacity:1"
     d="m 32.485693,66.935761 c -0.436326,-0.11403 -0.369643,-0.2913 0.461668,-1.22731 0.447186,-0.50351 0.755456,-1.01426 0.755456,-1.25168 0,-0.70061 -0.65285,-0.77563 -6.310982,-0.72519 -6.570871,0.0586 -6.568853,0.0591 -11.533297,-3.02474 l -2.147581,-1.33405 1.560004,-1.00664 c 3.019957,-1.94873 3.361205,-1.99799 6.231225,-0.89947 3.257246,1.24673 6.045963,1.90332 11.109417,2.61568 3.75562,0.52836 4.679085,0.78643 5.402412,1.50975 1.075368,1.07537 0.542136,2.2533 -1.291805,2.85364 -1.930267,0.63187 -2.600002,1.1561 -2.409189,1.88577 0.131274,0.50199 -0.906034,0.845 -1.827328,0.60424 z m 4.299167,-3.22472 c 0.596969,-0.39357 1.112368,-1.15674 1.113829,-1.64927 0.0019,-0.63519 -1.459457,-0.95677 -4.279812,-0.9418 -2.710437,0.0144 -4.196978,0.36117 -4.196978,0.97908 0,0.30116 0.129741,0.34126 1.259094,0.38922 0.692501,0.0294 2.108222,-0.0326 3.146046,-0.13776 1.037826,-0.10517 2.038805,-0.14302 2.224399,-0.0841 0.34854,0.11062 0.450176,0.56818 0.188434,0.84833 -0.08196,0.0877 -0.200364,0.32946 -0.263131,0.53721 -0.14314,0.47377 0.146974,0.495 0.808119,0.0591 l 0,0 z m -13.688109,-0.63486 c -0.02987,-0.15507 -0.469791,-0.52959 -0.977614,-0.83226 -1.121473,-0.66841 -4.02266,-1.96998 -4.136751,-1.85589 -0.257434,0.25743 2.119494,1.94295 3.618838,2.56618 1.140122,0.47391 1.570056,0.50897 1.495527,0.12197 l 0,0 z"
     id="path3059"
     inkscape:connector-curvature="0"
     inkscape:export-filename="/home/pierremarijon/dev/3dbar/path3089.png"
     inkscape:export-xdpi="90"
     inkscape:export-ydpi="90" />
  <path
     style="fill:#0080c6;fill-opacity:1"
     d="m 12.11863,57.432061 c -0.872274,-0.60112 -2.873433,-2.74445 -2.712582,-2.9053 0.215901,-0.2159 3.815516,2.84218 3.815516,3.2415 0,0.33545 -0.23006,0.26532 -1.102934,-0.3362 z"
     id="path3061"
     inkscape:connector-curvature="0"
     inkscape:export-filename="/home/pierremarijon/dev/3dbar/path3089.png"
     inkscape:export-xdpi="90"
     inkscape:export-ydpi="90" />
  <path
     style="fill:#0080c6;fill-opacity:1"
     d="m 21.824589,15.240301 c -0.992156,-0.51909 -2.104539,-1.05067 -2.47196,-1.18129 -1.146685,-0.40764 -2.681959,-0.54374 -4.32461,-0.38338 -0.85505,0.0835 -2.083456,0.20212 -2.729791,0.26367 l -1.175153,0.11191 0.335758,-0.38007 c 0.584827,-0.66199 1.779376,-1.38864 2.810279,-1.70949 1.270645,-0.39547 4.156119,-0.41735 5.957917,-0.0452 2.885422,0.596 4.913953,1.88465 4.913953,3.12163 0,0.69733 -0.41628,1.14601 -1.063243,1.14601 -0.247076,0 -1.260993,-0.42471 -2.25315,-0.9438 z m 2.707208,-0.26727 c 0.379151,-0.60563 -1.272791,-1.98202 -2.073721,-1.72781 -0.657037,0.20853 -0.340684,1.22433 0.553161,1.77617 0.620896,0.38333 1.26309,0.36291 1.52056,-0.0484 l 0,0 z"
     id="path3063"
     inkscape:connector-curvature="0"
     inkscape:export-filename="/home/pierremarijon/dev/3dbar/path3089.png"
     inkscape:export-xdpi="90"
     inkscape:export-ydpi="90" />
  <path
     style="fill:#0080c6;fill-opacity:1"
     d="m 10.1158,10.817151 c 1.598406,-1.6467506 3.523206,-2.6016306 4.420302,-2.1928906 l 0.4471,0.20371 -0.419151,0.33993 c -0.465421,0.37745 -4.376197,2.3677306 -5.035828,2.5628406 -0.332492,0.0983 -0.210404,-0.0915 0.587577,-0.91359 z"
     id="path3065"
     inkscape:connector-curvature="0"
     inkscape:export-filename="/home/pierremarijon/dev/3dbar/path3089.png"
     inkscape:export-xdpi="90"
     inkscape:export-ydpi="90" />
  <path
     style="fill:#0080c6;fill-opacity:1"
     d="m 16.418561,6.1265704 -0.412404,-0.11084 0.529881,-0.37731 c 0.801631,-0.57081 2.375197,-1.24877 2.651954,-1.14256 0.134804,0.0517 0.245099,0.20302 0.245099,0.33621 0,0.3204 -0.926406,1.08949 -1.439911,1.1954 -0.911501,0.18799 -1.180824,0.20494 -1.574619,0.0991 z"
     id="path3067"
     inkscape:connector-curvature="0"
     inkscape:export-filename="/home/pierremarijon/dev/3dbar/path3089.png"
     inkscape:export-xdpi="90"
     inkscape:export-ydpi="90" />
  <path
     style="fill:#0080c6;fill-opacity:1"
     d="m 45.957993,40.284551 c 0,-0.31779 0.270494,-2.03645 0.601097,-3.81925 0.819085,-4.41699 0.881239,-4.83631 0.716865,-4.83631 -0.07854,0 -0.142808,0.0729 -0.142808,0.16203 0,0.30805 -1.043144,1.34888 -1.35188,1.34888 -0.340849,0 -1.051463,0.85186 -1.26038,1.51091 l -0.133044,0.4197 -0.121526,-0.4197 c -0.190441,-0.6577 -0.174252,-5.03867 0.024,-6.49317 0.09844,-0.72226 0.447647,-2.10644 0.776006,-3.07594 0.770259,-2.27423 0.80094,-3.06306 0.152132,-3.91123 -0.492326,-0.6436 -1.060995,-1.05936 -1.224855,-0.8955 -0.04893,0.0489 -0.0047,0.33074 0.09832,0.62623 0.45095,1.2936 0.123935,2.48456 -0.895777,3.26233 -0.722237,0.55088 -1.069906,0.49158 -1.509971,-0.25753 -0.275163,-0.46841 -0.344848,-0.87687 -0.344848,-2.02134 0,-1.67337 -0.152411,-1.99119 -1.444769,-3.01274 -0.8035,-0.63512 -1.157357,-0.80876 -1.157357,-0.56789 0,0.058 0.387195,0.62767 0.860433,1.26604 0.849407,1.14578 0.994977,1.67159 0.290091,1.04781 -1.511623,-1.33767 -3.607502,-6.71036 -3.46933,-8.89346 0.05019,-0.79297 0.07224,-0.82643 0.514105,-0.78018 0.253917,0.0266 0.461668,-0.0154 0.461668,-0.0932 0,-0.52226 -4.460345,-5.1658506 -5.839393,-6.0792906 -0.85648,-0.56731 -1.043651,-0.61538 -1.043651,-0.26808 0,0.29583 0.592048,1.04025 1.912848,2.40516 0.558435,0.57708 0.949451,1.04924 0.868924,1.04924 -0.222281,0 -3.192642,-2.45214 -3.778162,-3.11901 -0.282987,-0.3223 -0.514523,-0.68523 -0.514523,-0.80649 0,-0.24269 0.84549,-0.64941 2.01455,-0.96909 0.426074,-0.1165 1.743601,-0.20586 3.021824,-0.20493 1.960893,10e-4 2.398333,0.0534 3.245433,0.38536 0.96948,0.37997 2.126699,1.23098 2.126699,1.56396 0,0.27696 -1.224978,0.0392 -2.275323,-0.4417 -0.525225,-0.24046 -1.163019,-0.43719 -1.41732,-0.43719 -0.38535,0 -0.480168,0.089 -0.569244,0.53439 -0.191776,0.95888 0.433568,1.61821 2.608479,2.75026 1.456868,0.75831 2.162246,1.24902 2.997384,2.08519 2.13396,2.1365906 3.691678,4.7990706 3.826105,6.5396406 0.08599,1.11338 -0.11509,1.02274 -0.793463,-0.35766 -0.237302,-0.48287 -0.514725,-0.90246 -0.616497,-0.93242 -0.268706,-0.0791 -0.419004,1.92709 -0.23187,3.09501 0.170275,1.0627 0.706637,1.72993 1.391576,1.73109 1.431684,0.002 2.653268,2.37498 3.374722,6.55432 0.482379,2.7944 0.810122,6.49319 0.83235,9.39357 0.02105,2.74691 -0.002,2.98373 -0.354376,3.64304 -0.340144,0.63641 -1.723333,1.89697 -2.081498,1.89697 -0.07906,0 -0.143739,-0.26 -0.143739,-0.57779 z m 1.74477,-1.53443 c 0.266063,-0.69335 -0.07437,-2.25264 -0.491812,-2.25264 -0.279403,0 -0.491913,1.27565 -0.333024,1.99907 0.124249,0.5657 0.643773,0.72541 0.824836,0.25357 l 0,0 z m -1.614554,-10.20074 c 0.179802,-0.19905 0.412922,-0.61871 0.518046,-0.93257 0.232525,-0.69424 0.254346,-3.14774 0.02923,-3.28687 -0.193918,-0.11985 -0.829574,1.10623 -1.325733,2.55713 -0.346953,1.01458 -0.459157,1.89977 -0.265374,2.09355 0.165339,0.16534 0.707135,-0.0585 1.04383,-0.43124 z m -7.450919,-13.6381 c 0.330012,-0.85999 -0.195281,-2.84835 -0.58854,-2.22776 -0.169393,0.26731 -0.199741,2.21869 -0.03704,2.38139 0.198445,0.19845 0.520855,0.11927 0.625575,-0.15363 z m 3.962988,-1.87491 c -3.58e-4,-0.79561 -1.784719,-3.7353106 -2.267288,-3.7353106 -0.366778,0 -0.310031,0.3823903 0.230997,1.5565706 0.853173,1.85162 2.036715,3.11796 2.036291,2.17874 z"
     id="path3069"
     inkscape:connector-curvature="0"
     inkscape:export-filename="/home/pierremarijon/dev/3dbar/path3089.png"
     inkscape:export-xdpi="90"
     inkscape:export-ydpi="90" />
  <path
     style="fill:#0080c6;fill-opacity:1"
     d="m 57.625593,12.465411 c -3.748676,-0.4795 -8.476268,-1.39792 -11.079488,-2.1524 -0.646041,-0.18724 -1.193747,-0.3404303 -1.217124,-0.3404303 -0.02338,0 -0.0425,-0.0667 -0.0425,-0.14831 0,-0.2923403 0.95963,-0.3213203 3.189703,-0.0963 5.458566,0.5506903 11.202584,1.8296503 12.081302,2.6900303 0.214003,0.20953 0.116217,0.23791 -0.755456,0.21923 -0.550704,-0.0118 -1.530099,-0.0891 -2.176433,-0.17177 z"
     id="path3071"
     inkscape:connector-curvature="0"
     inkscape:export-filename="/home/pierremarijon/dev/3dbar/path3089.png"
     inkscape:export-xdpi="90"
     inkscape:export-ydpi="90" />
  <path
     style="fill:#0080c6;fill-opacity:1"
     d="m 50.238911,7.6921904 c -3.37976,-0.29915 -4.957223,-0.53411 -6.23442,-0.92859 -1.080676,-0.33379 -1.238832,-0.47683 -0.858473,-0.77642 0.372794,-0.29362 1.025246,-0.36161 2.140459,-0.22303 1.019978,0.12674 1.547672,0.0681 1.032976,-0.11489 -0.416742,-0.14812 -1.368734,-1.08071 -1.368734,-1.34084 0,-0.40423 1.211189,-0.16195 2.771922,0.55449 2.000779,0.91844 3.013012,1.23373 4.846141,1.50945 1.784435,0.2684 1.843354,0.28795 2.412714,0.80051 0.951841,0.85689 0.111254,0.94893 -4.742585,0.51932 l 0,0 z"
     id="path3073"
     inkscape:connector-curvature="0"
     inkscape:export-filename="/home/pierremarijon/dev/3dbar/path3089.png"
     inkscape:export-xdpi="90"
     inkscape:export-ydpi="90" />
  <path
     style="fill:#0080c6;fill-opacity:1"
     d="m 50.859136,23.658101 c -0.739089,-0.9396 -1.842896,-3.40173 -3.738536,-8.33912 -1.101101,-2.86792 -2.002002,-5.24538 -2.002002,-5.28324 0,-0.0737 1.882424,1.36262 2.853945,2.1776 0.779841,0.65419 1.341113,1.58394 1.342173,2.22332 4.7e-4,0.28541 -0.111641,0.88978 -0.249142,1.34304 -0.291316,0.9603 -0.319807,1.41168 -0.0891,1.41168 0.09049,0 0.663612,-0.45228 1.273597,-1.00508 1.294754,-1.17335 2.197749,-1.51311 4.021557,-1.51311 2.872104,0 6.859795,1.69056 10.40489,4.41108 1.209583,0.92824 1.93061,1.7932 1.93061,2.316 0,0.47052 -0.993527,1.34233 -2.142441,1.87997 -0.978529,0.45791 -1.081448,0.47464 -1.44683,0.23524 -0.245797,-0.16106 -0.664855,-0.90113 -1.117064,-1.9728 -0.947189,-2.24468 -1.524416,-2.99395 -2.599798,-3.37468 -0.488999,-0.17312 -1.010211,-0.51139 -1.255702,-0.81496 -1.431218,-1.76979 -1.898328,-2.00578 -3.973399,-2.00739 -1.809043,-10e-4 -2.234303,0.30102 -1.228275,0.87349 1.352517,0.76964 1.014655,2.48861 -0.834528,4.24588 -0.779145,0.74042 -1.182601,1.39623 -1.182601,1.92228 0,1.58482 3.593717,-2.84687 4.035936,-4.97703 0.222288,-1.07076 0.596836,-1.12978 0.550124,-0.0867 -0.0593,1.32414 -1.75939,4.63482 -3.143398,6.1213 -0.687279,0.73817 -0.96416,0.78004 -1.410014,0.21323 l 0,0 z m 14.908594,-2.19684 c 0,-0.53018 -0.244245,-1.02201 -0.807377,-1.62578 -0.805599,-0.86374 -1.1358,-0.41213 -0.613192,0.83864 0.330757,0.79162 0.719552,1.21788 1.110831,1.21788 0.220585,0 0.309738,-0.12398 0.309738,-0.43074 z"
     id="path3075"
     inkscape:connector-curvature="0"
     inkscape:export-filename="/home/pierremarijon/dev/3dbar/path3089.png"
     inkscape:export-xdpi="90"
     inkscape:export-ydpi="90" />
  <path
     style="fill:#0080c6;fill-opacity:1"
     d="m 62.4449,33.706921 c -0.291062,-0.23833 -0.424166,-0.59301 -0.545757,-1.45426 -0.197037,-1.39567 -0.686257,-2.3899 -1.969558,-4.00269 -1.078468,-1.35537 -2.471368,-2.51708 -3.798771,-3.16827 -0.598338,-0.29353 -0.871698,-0.53357 -0.909315,-0.7985 -0.118461,-0.83427 1.393434,-3.23827 2.362876,-3.7571 0.478503,-0.25609 1.198987,0.10505 1.690083,0.84715 0.582463,0.88016 1.010795,1.96792 1.703073,4.32498 0.922862,3.14215 1.660037,4.58772 2.339529,4.58772 0.279355,0 0.60362,-0.84582 0.604936,-1.57793 0.0024,-1.32985 0.999086,-2.93093 2.216425,-3.56044 0.691925,-0.35781 1.644784,-0.35345 1.909624,0.009 0.342201,0.46798 0.46166,1.97772 0.352108,4.44999 -0.122583,2.76633 -0.199116,3.0967 -0.682962,2.94813 -1.565481,-0.48071 -2.829698,-0.75227 -3.513379,-0.7547 -1.445388,-0.005 -1.91707,0.57702 -0.912299,1.12599 0.437542,0.23906 0.918601,0.29471 2.428793,0.28099 2.862578,-0.026 1.923851,0.52808 -1.211669,0.7152 -1.484228,0.0886 -1.723405,0.0637 -2.063737,-0.21501 z m 5.435277,-5.19906 c 0.06221,-0.33161 0.06767,-0.99264 0.01213,-1.46894 -0.124319,-1.06612 -0.54676,-1.49748 -1.264825,-1.29154 -1.413797,0.40547 -1.537706,0.92641 -0.508077,2.13609 1.216802,1.42957 1.585213,1.56022 1.760775,0.62439 l -10e-7,0 z m -7.38363,-1.93065 c -0.22886,-1.43122 -1.121081,-2.48955 -1.534653,-1.82038 -0.344437,0.55732 0.735521,2.5073 1.388612,2.5073 0.205465,0 0.234241,-0.13535 0.146041,-0.68692 z"
     id="path3077"
     inkscape:connector-curvature="0"
     inkscape:export-filename="/home/pierremarijon/dev/3dbar/path3089.png"
     inkscape:export-xdpi="90"
     inkscape:export-ydpi="90" />
  <path
     style="fill:#0080c6;fill-opacity:1"
     d="m 56.371484,46.958411 c -1.87772,-0.78363 -2.69783,-1.86916 -2.687228,-3.5569 l 0.0038,-0.60856 0.271792,0.55144 c 0.645327,1.30932 3.586616,3.22584 4.950708,3.22584 0.733768,0 1.988658,-0.68991 1.988658,-1.09332 0,-0.32096 -0.551509,-0.32086 -1.610141,3.3e-4 -1.118027,0.33917 -1.197629,0.32089 -0.737132,-0.16929 0.653512,-0.69563 2.275014,-1.08662 5.204782,-1.25503 2.747277,-0.15796 3.186139,-0.23901 3.186139,-0.58846 0,-0.43242 -1.961525,-0.84711 -5.24438,-1.10874 -2.365149,-0.18849 -6.986763,-0.12524 -7.556381,0.1034 -0.47502,0.19068 -0.379292,-0.42519 0.737342,-4.74376 0.705433,-2.72825 1.036852,-4.33387 1.049244,-5.08324 0.01673,-1.01187 -0.02918,-1.15979 -0.602389,-1.94078 -0.341276,-0.46499 -1.304781,-1.47083 -2.141122,-2.23522 -0.83634,-0.76438 -1.472807,-1.46715 -1.41437,-1.5617 0.06107,-0.0988 0.490494,-0.14005 1.009886,-0.097 1.440217,0.11943 3.907329,1.429 5.278348,2.80181 1.023236,1.02457 1.120936,1.18711 1.320902,2.19761 0.118766,0.60017 0.272826,2.12144 0.342355,3.3806 0.06953,1.25916 0.178378,2.37346 0.241887,2.47622 0.186932,0.30246 0.501466,0.22125 1.521104,-0.39275 1.160395,-0.69875 2.433618,-0.98831 3.965174,-0.90177 1.267174,0.0716 1.842443,0.43198 2.262588,1.41741 0.612218,1.43593 0.434869,3.96865 -0.391266,5.58767 -0.607564,1.19067 -1.042144,1.48513 -2.740563,1.85694 -0.778589,0.17044 -2.322164,0.70713 -3.430167,1.19264 -2.502879,1.09671 -3.252064,1.18207 -4.77957,0.54459 l 0,0 z m 11.00451,-6.80956 c -0.133722,-1.23189 -0.716239,-2.53484 -1.170945,-2.61912 -0.292157,-0.0542 -0.31107,0.0281 -0.231595,1.00727 0.107811,1.32829 0.697552,2.6611 1.177482,2.6611 0.316014,0 0.331246,-0.071 0.225058,-1.04925 z m -5.038186,0.69472 c 0.291309,-0.47135 -1.476913,-0.77315 -2.854386,-0.48719 -0.90362,0.18759 -1.160274,0.38687 -0.724645,0.56265 0.433689,0.175 3.463723,0.11111 3.579031,-0.0755 z m -6.252692,-0.41715 c 0.745601,-0.7456 0.897753,-2.59495 0.224172,-2.72474 -0.322148,-0.0621 -0.663857,0.62446 -0.952994,1.91464 -0.286916,1.28028 -0.02854,1.56746 0.728822,0.8101 z m 2.635846,-3.68805 c 0.253239,-0.66607 0.199203,-3.0207 -0.08493,-3.70072 -0.458966,-1.09846 -1.254932,-0.38752 -1.259787,1.12521 -0.0021,0.66494 0.441306,2.33396 0.754934,2.84142 0.177975,0.28797 0.420823,0.17848 0.589779,-0.26591 l 0,0 z m -0.843551,-6.33707 c 0,-0.49549 -0.687008,-1.1483 -1.787111,-1.69816 -1.039866,-0.51975 -1.906229,-0.57834 -1.906229,-0.12891 0,0.68863 2.163199,2.20969 3.147733,2.21334 0.458876,0.002 0.545607,-0.0597 0.545607,-0.38627 z"
     id="path3079"
     inkscape:connector-curvature="0"
     inkscape:export-filename="/home/pierremarijon/dev/3dbar/path3089.png"
     inkscape:export-xdpi="90"
     inkscape:export-ydpi="90" />
  <path
     style="fill:#0080c6;fill-opacity:1"
     d="m 62.439785,48.804861 c -0.294605,-0.11722 0.792499,-0.85351 1.857874,-1.25832 0.60952,-0.2316 0.895178,-0.2649 1.141515,-0.13306 0.725905,0.38849 0.137108,1.05892 -1.098416,1.25069 -1.283701,0.19926 -1.680068,0.22859 -1.900973,0.14069 z"
     id="path3081"
     inkscape:connector-curvature="0"
     inkscape:export-filename="/home/pierremarijon/dev/3dbar/path3089.png"
     inkscape:export-xdpi="90"
     inkscape:export-ydpi="90" />
  <path
     style="fill:#0080c6;fill-opacity:1"
     d="m 61.030348,53.628261 c -0.229793,-0.18075 -0.703785,-0.87286 -1.053316,-1.53802 -0.6037,-1.14884 -0.620128,-1.22062 -0.328204,-1.43408 0.506513,-0.37038 3.610734,-0.11876 4.05845,0.32895 0.225027,0.22503 0.20099,0.34774 -0.219424,1.12018 -0.487902,0.89643 -1.424899,1.85162 -1.816364,1.85162 -0.122835,0 -0.411349,-0.14789 -0.641142,-0.32865 z"
     id="path3083"
     inkscape:connector-curvature="0"
     inkscape:export-filename="/home/pierremarijon/dev/3dbar/path3089.png"
     inkscape:export-xdpi="90"
     inkscape:export-ydpi="90" />
  <path
     style="fill:#0080c6;fill-opacity:1"
     d="m 49.439187,41.827641 c -0.03974,-0.11541 0.116202,-0.70089 0.34653,-1.30106 0.661222,-1.72295 0.850122,-2.98456 1.118572,-7.47062 0.138134,-2.30834 0.350297,-4.53645 0.471474,-4.95136 l 0.220323,-0.75438 0.448654,1.67772 c 0.680742,2.54559 0.849666,3.95721 0.743182,6.21045 -0.14274,3.02041 -0.961717,5.58095 -2.06182,6.44629 -0.497821,0.39158 -1.175403,0.46686 -1.286915,0.14296 z"
     id="path3085"
     inkscape:connector-curvature="0"
     inkscape:export-filename="/home/pierremarijon/dev/3dbar/path3089.png"
     inkscape:export-xdpi="90"
     inkscape:export-ydpi="90" />
  <path
     style="fill:#0080c6;fill-opacity:1"
     d="m 55.984895,59.454951 c -0.135007,-0.38376 0.223499,-1.02713 1.07264,-1.92498 0.742894,-0.7855 0.834047,-0.961 0.788003,-1.51717 -0.05046,-0.60953 -0.07535,-0.6318 -0.807522,-0.72252 -0.919506,-0.11394 -2.092906,-0.70293 -3.484669,-1.74914 -1.370442,-1.03018 -2.055342,-1.87091 -2.055342,-2.52299 l 0,-0.51196 -1.301064,0.004 c -1.205781,0.004 -1.41786,-0.0522 -2.895915,-0.76543 -2.825245,-1.3633 -5.369887,-3.08121 -7.459677,-5.03611 -1.330236,-1.24437 -1.709499,-1.91567 -1.866553,-3.30385 l -0.116246,-1.02748 2.49684,1.08913 c 3.94514,1.72088 5.516919,2.7939 5.631579,3.84453 0.04898,0.44881 0.109793,0.49827 0.558601,0.4543 1.548435,-0.15169 2.038973,-0.0823 3.139395,0.44393 4.006368,1.91597 9.031201,7.37351 9.031709,9.80946 1.68e-4,1.16351 -0.880064,2.69711 -1.907953,3.32389 -0.619665,0.37785 -0.72532,0.39225 -0.823826,0.11224 l 0,0 z m 0.8072,-4.83606 c 0.23778,-0.38474 -0.129606,-0.99834 -0.964859,-1.61147 -0.628291,-0.4612 -0.794565,-0.6587 -0.588055,-0.69847 0.482495,-0.0929 0.339561,-0.85657 -0.308313,-1.64721 -0.730533,-0.89152 -2.212776,-2.04794 -3.385313,-2.64115 -1.621765,-0.8205 -1.550617,-0.5154 0.288208,1.23587 1.337813,1.27412 1.706668,1.71491 1.53016,1.82858 -0.347519,0.22379 -0.123485,0.85042 0.652466,1.82498 0.66521,0.83547 2.031692,1.88629 2.452925,1.88629 0.117219,0 0.262472,-0.0798 0.322781,-0.17742 z m -6.915096,-4.7674 c 0.129465,-0.33738 -0.763664,-0.99554 -3.07961,-2.26941 -3.472439,-1.90999 -4.617125,-2.91286 -4.204589,-3.6837 0.422836,-0.79007 -0.01781,-0.92519 -0.818904,-0.25111 -1.100608,0.9261 -0.465142,2.03707 2.009381,3.51296 1.754487,1.04643 5.425358,2.926 5.724187,2.93092 0.151705,0.002 0.317996,-0.10535 0.369535,-0.23966 z"
     id="path3087"
     inkscape:connector-curvature="0"
     inkscape:export-filename="/home/pierremarijon/dev/3dbar/path3089.png"
     inkscape:export-xdpi="90"
     inkscape:export-ydpi="90" />
  <path
     style="fill:#0080c6;fill-opacity:1"
     d="m 37.135299,66.868981 c -0.177969,-0.28796 0.08574,-0.43905 1.477939,-0.84676 1.062948,-0.31129 1.339428,-0.34121 1.510912,-0.1635 0.169084,0.17521 0.130626,0.27151 -0.1978,0.49528 -0.847794,0.57765 -2.557372,0.89308 -2.791051,0.51498 z"
     id="path3089"
     inkscape:connector-curvature="0"
     inkscape:export-xdpi="90"
     inkscape:export-ydpi="90" />
  <path
     style="fill:#0080c6;fill-opacity:1"
     d="m 74.698051,-87.14549 c 0.0034,-0.27701 0.04105,-0.37 0.08361,-0.20666 0.04256,0.16334 0.03977,0.38998 -0.0062,0.50364 -0.04599,0.11366 -0.08081,-0.02 -0.07739,-0.29698 z"
     id="path3091"
     inkscape:connector-curvature="0" />
</svg>
