<?xml version="1.0" encoding="UTF-8" standalone="no"?>
<!-- Created with Inkscape (http://www.inkscape.org/) -->

<svg
   xmlns:dc="http://purl.org/dc/elements/1.1/"
   xmlns:cc="http://creativecommons.org/ns#"
   xmlns:rdf="http://www.w3.org/1999/02/22-rdf-syntax-ns#"
   xmlns:svg="http://www.w3.org/2000/svg"
   xmlns="http://www.w3.org/2000/svg"
   xmlns:sodipodi="http://sodipodi.sourceforge.net/DTD/sodipodi-0.dtd"
   xmlns:inkscape="http://www.inkscape.org/namespaces/inkscape"
   id="svg3039"
   version="1.1"
   inkscape:version="0.91 r13725"
   width="70"
   height="70"
   sodipodi:docname="index.svg">
  <metadata
     id="metadata3045">
    <rdf:RDF>
      <cc:Work
         rdf:about="">
        <dc:format>image/svg+xml</dc:format>
        <dc:type
           rdf:resource="http://purl.org/dc/dcmitype/StillImage" />
      </cc:Work>
    </rdf:RDF>
  </metadata>
  <defs
     id="defs3043" />
  <sodipodi:namedview
     pagecolor="#ffffff"
     bordercolor="#666666"
     borderopacity="1"
     objecttolerance="10"
     gridtolerance="10"
     guidetolerance="10"
     inkscape:pageopacity="0"
     inkscape:pageshadow="2"
     inkscape:window-width="1920"
     inkscape:window-height="1029"
     id="namedview3041"
     showgrid="false"
     inkscape:zoom="5.9566667"
     inkscape:cx="9.7264232"
     inkscape:cy="23.906741"
     inkscape:window-x="0"
     inkscape:window-y="25"
     inkscape:window-maximized="1"
     inkscape:current-layer="svg3039"
     height="100px"
     showguides="false">
    <sodipodi:guide
       position="0,0"
       orientation="0,300"
       id="guide3244" />
    <sodipodi:guide
       position="81.421377,-4.7006156"
       orientation="-94,0"
       id="guide3246" />
    <sodipodi:guide
       position="300,94"
       orientation="0,-300"
       id="guide3248" />
    <sodipodi:guide
       position="0,94"
       orientation="94,0"
       id="guide3250" />
  </sodipodi:namedview>
  <path
     style="fill:#0080c6;fill-opacity:1"
     d="m 74.698051,-87.14549 c 0.0034,-0.27701 0.04105,-0.37 0.08361,-0.20666 0.04256,0.16334 0.03977,0.38998 -0.0062,0.50364 -0.04599,0.11366 -0.08081,-0.02 -0.07739,-0.29698 z"
     id="path3091"
     inkscape:connector-curvature="0" />
  <g
     transform="matrix(0.12376214,0,0,-0.12376214,2.0000011,92.618021)"
     id="g3426">
    <path
       inkscape:connector-curvature="0"
       id="path14"
       style="fill:#297ecb;fill-opacity:1;fill-rule:nonzero;stroke:none"
       d="m 448.629,389.43 c -1.039,-0.075 -2.086,-0.141 -3.102,-0.141 c -1.527,0 -3.359,0.137 -5,1.004 c 0.453,-3.07 1.911,-3.09 2.676,-3.09 c 0,0 0.004,0 0.012,0 c 1.336,0.004 3.055,0.606 4.875,1.246 c 1.16,0.41 2.34,0.821 3.508,1.114 c -0.024,0.003 -0.043,0.003 -0.071,0.003 c -0.937,0 -1.918,-0.07 -2.898,-0.136" />
    <path
       inkscape:connector-curvature="0"
       id="path16"
       style="fill:#297ecb;fill-opacity:1;fill-rule:nonzero;stroke:none"
       d="m 391.914,363.969 c -43.316,24.922 -101.051,55.789 -164.266,73.761 c -3.726,0.235 -7.898,1.122 -11.929,1.989 c -5.016,1.066 -10.207,2.176 -15.149,2.176 c -5.961,0 -10.632,-1.582 -14.699,-4.981 c -6.562,-3.891 -13.512,-5.668 -21.973,-5.668 c -6.687,0 -13.55,1.133 -20.195,2.231 c -5.621,0.933 -11.433,1.894 -17.129,2.168 c -5.847,-1.297 -12.683,-1.532 -19.297,-1.762 c -3.179,-0.11 -6.265,-0.215 -9.1129,-0.445 c -0.0235,0 -0.0469,0 -0.0664,0 c -0.4219,0 -0.7813,0.308 -0.8399,0.734 c -0.0664,0.441 0.2266,0.859 0.668,0.949 c 4.7812,0.977 9.1952,2.813 13.4612,4.59 c 6.097,2.539 12.402,5.164 19.84,5.309 l 0.945,1.097 l -13.313,61.403 c -5.703,5.293 -12.847,8.203 -20.9957,8.203 c -6.0469,0 -12.457,-1.59 -19.0508,-4.723 l -1.7461,-1.379 c -4.6797,-3.605 -9.5117,-7.324 -9.7812,-12.93 c 1.4257,0.247 2.9609,0.579 4.5625,0.922 c 4.2773,0.922 9.125,1.965 13.8281,1.965 c 4.3984,0 8.0078,-0.906 11.0312,-2.769 c 0.2774,-0.168 0.4258,-0.481 0.3985,-0.801 c -0.0313,-0.324 -0.2383,-0.602 -0.5391,-0.715 c -3.1562,-1.215 -6.6484,-1.715 -10.0234,-2.195 c -3.5977,-0.52 -7.3203,-1.047 -10.5703,-2.453 C 62.6953,483.688 56.5586,469.465 51.1484,456.918 l -0.7851,-1.816 c -0.1172,-0.262 -0.3594,-0.454 -0.6406,-0.5 c -0.0508,-0.008 -0.0938,-0.012 -0.1407,-0.012 c -0.2343,0 -0.4648,0.098 -0.6328,0.277 c -2.5586,2.809 -1.9414,6.356 -1.3398,9.781 c 0.2383,1.383 0.4883,2.786 0.5156,4.153 c 7.375,6.258 8.3555,13.972 9.3984,22.14 c 1.1329,8.914 2.3125,18.125 11.9493,24.278 c 6.9882,5.949 16.7773,9.129 28.2187,9.129 c 7.2036,0 14.7536,-1.25 21.9136,-3.621 c 0.977,20.074 4.852,35.445 12.168,48.296 c 0.118,0.211 0.321,0.364 0.559,0.411 c 0.055,0.015 0.121,0.019 0.18,0.019 c 0.176,0 0.351,-0.055 0.496,-0.16 l 1.601,-1.164 c 0.309,-0.223 0.43,-0.625 0.297,-0.984 c -13.035,-35.122 -4.027,-81.856 5.821,-114.879 c 1.242,-3.727 5.054,-5.586 8.425,-7.227 l 2.786,0 c 21.792,1.242 48.914,2.789 57.234,25.953 c 3.562,14.852 5.871,29.051 7.019,43.317 c 0.071,2.754 -2.425,4.101 -5.316,5.652 c -0.949,0.512 -1.898,1.027 -2.758,1.598 c -19.019,12.211 -30.887,31.648 -35.265,57.761 c -11.856,16.453 -31.258,26.09 -53.086,26.09 c -6.168,0 -12.379,-0.789 -18.473,-2.359 c -6.7657,-1.223 -9.5039,-9.387 -10.5391,-14.149 C 84.8867,575.688 78.5273,560.102 75.375,543.469 c -0.0586,-0.324 -0.2969,-0.578 -0.6094,-0.664 c -0.0742,-0.02 -0.1523,-0.032 -0.2226,-0.032 c -0.2422,0 -0.4766,0.102 -0.6407,0.29 l -1.3085,1.484 c 0.6562,12.051 3.6796,22.992 6.6054,33.57 c 1.7383,6.278 3.5352,12.774 4.8594,19.301 c -6.6406,4.285 -15.8086,6.785 -27.707,6.785 c -6.5157,0 -13.1914,-0.793 -19.7969,-1.906 C 31.2656,593.281 26.4844,583.938 22.2656,574.285 c 0.4844,-3.246 0.9141,-6.512 0.8907,-9.68 C 24.4531,556.398 29,549.406 33.3984,542.641 c 2.8125,-4.325 5.7227,-8.793 7.7657,-13.586 c 0.1484,-0.352 0.0468,-0.762 -0.2539,-1.004 c -0.1563,-0.121 -0.3438,-0.18 -0.5274,-0.18 c -0.1758,0 -0.3594,0.055 -0.5078,0.168 c -5.2656,3.899 -11.2422,10.871 -16.4258,19.086 c 0.9297,-4.371 2.6602,-9 4.3477,-13.516 c 1.3828,-3.707 2.7617,-7.414 3.7461,-11 c 0.0898,-0.324 -0.0235,-0.671 -0.2813,-0.886 c -0.1562,-0.125 -0.3476,-0.188 -0.539,-0.188 c -0.1329,0 -0.2618,0.028 -0.3789,0.09 c -4.6485,2.344 -7.625,8.797 -10.2422,14.484 l -1.1719,2.508 c -0.9219,3.028 -1.8438,5.953 -2.7774,8.899 c -0.6328,2.011 -1.2734,4.031 -1.8984,6.062 C 8.98438,538.121 5.08203,522.043 2.72656,505.453 C 6.29297,499.477 10.3945,493.852 15.168,488.645 c 0.2343,-0.254 0.289,-0.622 0.1445,-0.934 c -0.1406,-0.301 -0.4375,-0.492 -0.7695,-0.492 c -0.0117,0 -0.0196,0 -0.0313,0 C 9,487.418 4.82422,490.273 1.3125,494 C 0.460938,485.313 0,476.508 0,467.598 c 0,-0.164 0.0117188,-0.328 0.0117188,-0.493 C 4.76563,465.09 9.52344,463.598 14.2891,462.773 c 1.5898,-0.21 3.3086,-0.332 5.0468,-0.453 c 3.9766,-0.277 8.0899,-0.566 11.6993,-1.953 c 0.3086,-0.121 0.5195,-0.402 0.5468,-0.726 c 0.0235,-0.328 -0.1406,-0.641 -0.4257,-0.809 c -4.3829,-2.547 -9.961,-3.078 -13.8594,-3.078 c -3.5742,0 -7.35549,0.457 -10.64065,1.293 l -4.76562,-0.234 c 0.57031,-6.77 0.43359,-13.786 0.04296,-20.836 C 3.89844,419.371 7.32422,403.219 12.1992,387.691 c 0.2656,0.356 0.6172,0.688 1.1055,0.961 c 3.6523,4.739 9.7148,5.258 15.5781,5.762 c 5.3086,0.453 10.332,0.891 13.1016,4.672 c -6.8555,7.5 -9.6836,17.168 -7.7696,26.633 c 0.0782,0.379 0.4063,0.66 0.7969,0.679 c 0,0 2.5235,0.118 2.5391,0.118 c 0.3984,0 0.75,-0.286 0.832,-0.68 c 1.4805,-7.203 3.336,-14.758 8.2344,-21.027 c 4.1016,-1.746 8.5195,-3.793 12.9375,-5.84 C 91.1523,384.336 123.828,369.211 160.586,369.211 c 4.008,0 8.078,0.18 12.199,0.551 l 0.707,2.676 c -12.23,11.863 -20.617,29.71 -27.355,44.046 c -0.168,0.371 -0.141,0.981 0.191,1.223 c 0.199,0.145 0.422,0.254 0.625,0.254 c 0.133,0 0.258,-0.047 0.379,-0.152 c 6.57,-6.137 11.027,-13.614 15.336,-20.844 c 6.34,-10.645 12.332,-20.699 24.516,-26.66 c 2.027,-0.047 4.359,-0.11 6.691,-0.11 c 11.652,0 23.215,1.539 34.391,3.024 c 11.168,1.484 22.714,3.015 34.343,3.015 c 5.125,0 9.895,-0.285 14.579,-0.879 c 1.292,0.461 2.269,2.047 2.554,4.688 c -4.961,11.066 -17.5,23.41 -29.101,28.273 c -0.344,0.145 -0.551,0.489 -0.516,0.86 c 0.027,0.367 0.289,0.668 0.652,0.758 c 0.762,0.175 1.532,0.269 2.282,0.269 c 3.949,0 6.953,-2.43 9.851,-4.777 c 2.539,-2.055 4.942,-3.996 7.809,-4.25 c 0.738,0.906 1.176,2.449 1.64,4.09 c 0.563,1.98 1.141,4.035 3.407,5.109 c 0.117,0.059 0.246,0.086 0.367,0.086 c 0.16,0 0.324,-0.047 0.465,-0.137 c 0.242,-0.164 0.39,-0.437 0.386,-0.734 c -0.203,-9.078 1.649,-16.988 5.653,-24.184 c 20.09,-24.133 46.289,-37.246 71.633,-49.933 c 20.062,-10.043 40.808,-20.43 58.937,-36.336 c 2.18,-1.801 3.746,-4.176 5.266,-6.477 c 2.562,-3.875 4.781,-7.226 9.359,-7.226 c 0.898,0 1.887,0.132 2.93,0.394 c 0.902,0.317 1.812,1.41 2.687,2.469 c 1.219,1.48 2.485,3.004 4.297,3.004 c 0.594,0 1.203,-0.176 1.809,-0.524 c 0.347,-0.199 0.508,-0.617 0.386,-0.996 c -1.8,-5.59 -6.679,-7.211 -11.394,-8.781 c -2.141,-0.711 -4.16,-1.387 -5.91,-2.406 C 424.098,263.137 417,248.715 403.566,239.82 c -7.136,-4.937 -15.175,-5.601 -22.101,-5.601 c -2.106,0 -4.215,0.066 -6.313,0.133 c -2.054,0.062 -4.101,0.125 -6.125,0.125 c -7.414,0 -15.136,-0.813 -21.386,-6.707 c -2.883,-1.106 -5.512,-1.934 -8.129,-2.766 c -5.297,-1.668 -10.77,-3.399 -15.637,-5.887 c -1.852,-1.808 -1,-3.109 0.828,-5.429 c 1.11,-1.411 2.367,-3.012 2.309,-4.915 c -0.008,-0.253 -0.125,-0.492 -0.332,-0.648 c -0.145,-0.117 -0.332,-0.176 -0.516,-0.176 c -0.066,0 -0.129,0.004 -0.191,0.02 c -3.965,0.91 -7.059,4.039 -10.051,7.062 c -3.617,3.657 -7.031,7.114 -11.879,7.114 c -0.914,0 -1.871,-0.129 -2.84,-0.383 c -15.586,-7.356 -29.328,-10.961 -41.863,-10.961 l -1.102,0.012 c -0.461,0.007 -0.832,0.378 -0.836,0.839 c -0.004,0.457 0.352,0.84 0.813,0.86 c 12.109,0.539 23.226,5.148 33.988,14.09 l 3.223,18.332 c -0.637,7.218 -5.055,12.601 -9.727,18.293 c -8.871,-0.879 -18.258,-1.551 -27.719,-1.551 c -24.578,0 -50.964,4.527 -78.429,13.453 c -6.879,1.023 -13.5,4.34 -19.906,7.547 c -7.598,3.808 -15.454,7.746 -23.821,7.746 c -4.148,0 -8.129,-0.934 -12.168,-2.859 L 95.0352,263.578 c 19.9058,-16.765 42.2888,-30.676 66.5428,-41.086 c 10.223,-2.547 21.117,-3.855 32.442,-3.855 c 16.312,0 32.726,2.773 47.464,8.023 c 1.528,-0.191 2.598,-0.332 3.653,-0.469 c 2.629,-0.351 5.343,-0.711 7.773,-2.261 c 0.266,-0.168 0.414,-0.469 0.391,-0.782 c -0.024,-0.316 -0.219,-0.589 -0.508,-0.71 c -3.043,-1.333 -6.695,-1.672 -10.563,-2.032 c -6.371,-0.59 -12.957,-1.207 -17.019,-6.426 c 2.113,-4.367 9.41,-8.062 14.234,-10.507 c 1.45,-0.504 2.95,-0.981 4.414,-1.481 c 7.52,-0.633 15.102,-1.035 22.782,-1.035 c 74.531,0 141.89,30.617 190.273,79.914 c -13.012,32.402 -28.914,67.305 -65,83.098 z M 147.336,483.652 c 9.652,2.532 16.32,9.75 23.383,17.399 c 7.094,7.683 14.433,15.633 25.078,18.359 c 0.066,0.016 0.141,0.024 0.211,0.024 c 0.355,0 0.687,-0.223 0.805,-0.575 l 0.722,-2.14 c 0.137,-0.406 -0.051,-0.848 -0.433,-1.035 C 178.16,506.445 170.82,485.59 166.945,470.703 c -0.097,-0.375 -0.437,-0.633 -0.82,-0.633 c -0.016,0 -0.031,0 -0.051,0 c -0.406,0.024 -0.738,0.325 -0.789,0.727 l -1.367,9.578 c -0.879,2.59 -2.004,2.941 -2.883,2.941 c -1.203,0 -2.711,-0.742 -4.301,-1.527 c -1.949,-0.961 -3.964,-1.961 -6.039,-1.961 c -0.05,0 -1.043,0.09 -1.043,0.09 c -1.297,-0.004 -2.89,1.23 -2.953,2.879 c -0.015,0.402 0.25,0.758 0.637,0.855" />
    <path
       inkscape:connector-curvature="0"
       id="path18"
       style="fill:#297ecb;fill-opacity:1;fill-rule:nonzero;stroke:none"
       d="m 108.672,288.645 c -0.367,-0.27 -1.332,-0.293 -2.297,-0.293 c -12.5312,0 -23.6641,3.812 -32.9023,7.543 c -0.3907,0.156 -0.6055,0.57 -0.5118,0.976 c 0.0899,0.391 0.4336,0.66 0.8282,0.66 c 0.0195,0 0.039,0 0.0586,0 c 7.9687,-0.562 16.0976,-0.847 24.1757,-0.847 c 32.8986,0 63.9686,4.718 87.4766,13.289 c 0.098,0.031 0.195,0.047 0.293,0.047 c 0.273,0 0.535,-0.133 0.695,-0.368 c 0.223,-0.32 0.196,-0.746 -0.058,-1.039 c -5.047,-5.816 -11.641,-9.453 -21.375,-11.793 c -0.992,-0.062 -1.934,-0.527 -2.68,-1.269 c -0.75,-0.742 -1.168,-1.641 -1.133,-2.406 c 30.274,-14.024 64.219,-22.309 100.41,-23.895 c 1.973,-0.371 3.77,-0.539 5.52,-0.539 c 10.281,0.004 19.219,5.695 27.109,10.715 c 1.981,1.254 3.903,2.48 5.789,3.582 c 0.129,0.078 0.282,0.117 0.43,0.117 c 0.156,0 0.313,-0.043 0.453,-0.133 c 0.27,-0.164 0.422,-0.472 0.395,-0.785 c -0.258,-3.141 -2.09,-5.199 -3.864,-7.187 c -1.121,-1.266 -2.195,-2.469 -2.882,-3.93 c 8.875,-5.738 20.101,-5.844 30.961,-5.953 c 4.507,-0.043 8.949,-0.086 13.16,-0.524 c 0.414,-0.043 0.734,-0.375 0.761,-0.793 c 0.024,-0.418 -0.254,-0.785 -0.664,-0.879 c -5.07,-1.148 -10.582,-1.296 -14.82,-1.296 c -2.207,0 -11.129,0.183 -13.34,0.183 c -4.652,0 -8.144,-0.207 -11.32,-0.656 l -0.758,-2.692 c 4.383,-6.417 4.668,-15.417 4.938,-24.121 l 0.152,-4.183 l 1.988,-1.469 l 1.246,0.176 c 2.61,-0.063 5.278,-0.133 7.949,-0.133 c 10.313,0 21.907,0.98 29.711,8.246 c 2.008,1.981 0.918,4.508 -0.718,7.606 l -0.516,0.996 c -0.172,0.34 -0.094,0.761 0.195,1.015 c 0.161,0.141 0.36,0.215 0.567,0.215 c 0.16,0 0.32,-0.043 0.461,-0.137 c 8.234,-5.378 18.113,-6.066 25.797,-6.066 c 4.125,0 8.332,0.227 12.531,0.449 l 5.254,0.266 c 9.668,4.383 19.746,9.668 23.789,20.75 c 2.945,16.84 -3.414,32.336 -17.488,42.363 c -14.747,8.633 -30.297,16.711 -45.333,24.524 c -18.007,9.351 -36.621,19.023 -54.07,29.773 c -11.246,6.621 -20.648,9.844 -28.734,9.844 c -5.758,0 -10.906,-1.676 -15.305,-4.965 C 246.313,352.52 238.672,336.387 229.609,328.5 c -0.156,-0.141 -0.355,-0.207 -0.554,-0.207 c -0.153,0 -0.301,0.039 -0.434,0.117 c -0.316,0.188 -0.476,0.555 -0.398,0.91 c 0.761,3.473 2.359,6.875 3.898,10.164 c 2.688,5.735 5.473,11.676 3.84,18.09 c -4.961,3.399 -11.449,5.203 -20.102,5.203 c -5.918,0 -12.261,-0.843 -18.394,-1.66 c -6.195,-0.824 -12.606,-1.679 -18.656,-1.679 c -0.942,0 -1.875,0.019 -2.801,0.066 c -1.988,-0.094 -4.031,-0.137 -6.067,-0.137 c -33.695,0 -63.601,12.461 -92.523,24.512 c -8.4571,3.523 -16.8985,7.039 -25.4297,10.258 c -4.6328,-2.512 -10.8555,-3.305 -16.8711,-4.078 c -7.6563,-0.985 -15.5117,-2.09 -21.4492,-6.719 c 5.6875,-17.09 13.0547,-33.399 21.914,-48.75 c 1.7032,-0.192 3.3828,-0.41 5.2539,-0.41 c 6.4805,0 13.0782,1.074 19.2422,2.23 c 2.0235,1.59 4.8203,2.586 7.3242,2.586 c 1.1719,0 2.2891,-0.211 3.3165,-0.633 c 0.289,-0.117 0.4921,-0.379 0.5273,-0.687 c 0.0352,-0.313 -0.1016,-0.613 -0.3555,-0.797 c -3.1172,-2.172 -7.1875,-3.281 -11.125,-4.359 c -7.2422,-1.981 -14.0508,-3.93 -15.5859,-11.883 c 13.5078,-20.403 29.7578,-38.809 48.2031,-54.762 c 4.5078,7.32 10.2502,14.652 17.2652,21.871 l -0.976,0.899" />
    <path
       inkscape:connector-curvature="0"
       id="path20"
       style="fill:#297ecb;fill-opacity:1;fill-rule:nonzero;stroke:none"
       d="m 303.371,713.883 c 3.481,0 6.926,0.961 10.266,1.89 c 2.554,0.707 5.113,1.415 7.73,1.75 l 1.321,0.016 c 15.75,0 29.757,-5.805 43.308,-11.426 c 6.352,-2.636 12.906,-5.351 19.582,-7.445 c -3.098,5.336 -6.906,9.488 -11.109,12.793 c -9.75,4.316 -19.789,8.102 -30.117,11.242 c -4.879,0.559 -9.614,0.727 -13.926,0.727 c -8.77,0 -17.797,-0.742 -26.254,-1.539 c -2.149,-1.426 -2.93,-2.536 -4.383,-5.075 l 0.223,-2.621 c 1.086,-0.211 2.191,-0.312 3.359,-0.312" />
    <path
       inkscape:connector-curvature="0"
       id="path22"
       style="fill:#297ecb;fill-opacity:1;fill-rule:nonzero;stroke:none"
       d="m 217.582,719.172 c -6.141,1.551 -12.75,2.336 -19.691,2.336 c -5.567,0 -11.157,-0.492 -16.719,-1.348 c -11.137,-3.769 -21.957,-8.222 -32.383,-13.367 c 18.84,2.172 37.973,6.051 55.316,9.625 c 4.586,0.945 9.09,1.875 13.477,2.754" />
    <path
       inkscape:connector-curvature="0"
       id="path24"
       style="fill:#297ecb;fill-opacity:1;fill-rule:nonzero;stroke:none"
       d="m 61.957,627.063 c 15.375,10.097 35.7383,21.73 59.863,25.546 c 1.563,1.2 1.438,3.418 1.301,5.766 c -0.039,0.738 -0.082,1.488 -0.058,2.223 c -0.504,-0.028 -1.008,-0.039 -1.504,-0.039 c -5.207,0 -10.059,1.371 -14.762,2.699 c -4.57,1.293 -8.8868,2.515 -13.3829,2.515 c -2.1914,0 -4.2539,-0.41 -6.2813,-1.015 C 70.793,649.867 56.3477,632.953 44.1133,614.453 c 7.6562,1.059 14.2578,3.789 17.8437,12.61" />
    <path
       inkscape:connector-curvature="0"
       id="path26"
       style="fill:#297ecb;fill-opacity:1;fill-rule:nonzero;stroke:none"
       d="m 159.043,637.078 c -5.008,1.649 -9.984,3.293 -14.656,5.297 c -5.203,1.414 -10.657,2.152 -16.11,2.152 c -22.832,0 -43.734,-12.785 -63.1832,-25.875 c -1.7032,-3.043 -1.625,-4.195 -1.4024,-4.586 c 0.1836,-0.316 0.7383,-0.382 1.1797,-0.382 c 1.9297,0.496 3.4687,0.742 5.0937,0.742 c 4.0313,0 7.7422,-1.516 11.3282,-2.981 c 3.2148,-1.308 6.25,-2.547 9.1914,-2.547 c 3.3242,0 6.1406,1.625 8.875,5.106 c 6.3006,1.754 12.3476,2.492 18.4256,2.492 c 22.356,0 44.524,-9.726 60.922,-26.715 c 7.938,4.93 16.324,14.946 16.461,25.836 c -8.082,12.196 -22.336,16.903 -36.125,21.461" />
    <path
       inkscape:connector-curvature="0"
       id="path28"
       style="fill:#297ecb;fill-opacity:1;fill-rule:nonzero;stroke:none"
       d="m 452.297,339.105 l -6.867,1.071 c -2.559,-1.043 -2.086,-4.379 -1.16,-8.633 c 0.207,-0.957 0.402,-1.855 0.5,-2.625 c 6.324,-13.254 16.324,-23.219 27.824,-30.676 c 10.785,13.106 20.355,27.25 28.515,42.278 c -6.523,-2.793 -13.812,-4.247 -22.281,-4.247 c -8.812,0 -17.82,1.442 -26.531,2.832" />
    <path
       inkscape:connector-curvature="0"
       id="path30"
       style="fill:#297ecb;fill-opacity:1;fill-rule:nonzero;stroke:none"
       d="m 121.832,669.492 c 2.207,0 4.301,0.461 6.406,1.403 c 2.871,1.835 5.563,4.441 8.16,6.968 c 4.954,4.813 9.637,9.36 16.184,9.36 c 1.754,0 3.59,-0.344 5.457,-1.02 c 0.336,-0.129 0.559,-0.457 0.555,-0.816 c -0.004,-0.364 -0.239,-0.68 -0.586,-0.793 c -9.063,-2.989 -14.813,-7.559 -18.102,-14.379 c 0.055,-0.953 -0.117,-2.223 -0.285,-3.445 c -0.426,-3.106 -0.793,-5.793 1.352,-8.332 c 8.347,-5.243 17.675,-9.079 26.699,-12.782 c 12.23,-5.031 24.883,-10.23 35.914,-19.453 c 0.027,0 0.957,-0.058 1.449,-0.058 c 4.317,0 5.914,4.816 7.192,8.691 l 0.718,2.078 c 0.203,0.844 0.348,1.895 0.493,2.969 c 0.355,2.601 0.722,5.297 2.343,7.062 c 0.16,0.176 0.391,0.274 0.625,0.274 c 0.043,0 0.09,-0.008 0.137,-0.012 c 0.277,-0.043 0.523,-0.23 0.641,-0.488 c 2.007,-4.442 0.937,-9.434 -0.094,-14.258 c -0.457,-2.152 -0.922,-4.313 -1.117,-6.434 c -2.27,-4.347 -4.653,-8.39 -7.055,-12.468 c -11.863,-20.106 -24.121,-40.903 -14.391,-64.911 c 6.395,-9.195 15.883,-16.25 25.059,-23.07 c 5.738,-4.269 11.676,-8.683 16.816,-13.613 c 0.282,-0.281 0.344,-0.715 0.137,-1.055 c -0.156,-0.262 -0.434,-0.41 -0.726,-0.41 c -0.09,0 -0.184,0.012 -0.27,0.043 c -1.094,0.367 -2.285,0.562 -3.453,0.562 c -1.824,0 -6.102,-0.546 -6.367,-5.57 c 0.539,-8.426 -1.274,-16.199 -3.024,-23.715 c -1.765,-7.621 -3.601,-15.496 -2.898,-24.027 c 7.41,-2.352 15.898,-4.598 24.113,-6.766 c 8.102,-2.14 16.488,-4.355 24.504,-7.398 c 16.852,-8.606 34.668,-15.238 51.895,-21.66 l 5.132,-1.914 c 6.356,0.773 8.532,7.011 10.637,13.047 c 0.902,2.597 1.754,5.054 2.957,7.136 c 1.813,6.828 3.672,13.727 5.848,20.325 c 0.109,0.332 0.41,0.562 0.761,0.582 c 0.016,0 0.032,0 0.047,0 c 0.332,0 0.633,-0.196 0.774,-0.5 c 2.242,-4.961 0.5,-11.957 -0.77,-17.071 c -0.636,-2.871 -1.488,-5.73 -2.347,-8.609 c -2.528,-8.457 -5.133,-17.199 -1.969,-26.867 c 1.551,-2.246 4.215,-3.438 8.031,-3.438 c 2.465,0 5.07,0.5 7.285,0.996 c 28.516,22.598 21.196,58.637 14.121,93.489 c -2.754,13.57 -5.355,26.394 -5.8,38.203 c -1.465,3.703 -2.438,8.019 -3.375,12.187 c -1.883,8.406 -3.836,17.086 -10.399,23.281 c -2.433,1.364 -5.109,2.75 -7.777,4.137 c -6.133,3.188 -12.477,6.485 -17.742,10.871 c -0.18,0.149 -0.293,0.364 -0.305,0.598 c -0.016,0.23 0.066,0.461 0.223,0.633 l 1.484,1.609 c 0.168,0.18 0.391,0.274 0.625,0.274 c 0.129,0 0.254,-0.028 0.371,-0.086 c 4.563,-2.223 9.281,-3.75 14.281,-5.372 c 2.137,-0.695 4.285,-1.386 6.442,-2.148 c -5.352,38.715 -26.207,71.895 -57.383,91.18 c -2.117,0.664 -4.399,1.5 -6.676,2.336 c -5.082,1.863 -10.336,3.793 -15.707,4.617 c -0.359,0.055 -0.644,0.332 -0.707,0.687 c -0.07,0.36 0.102,0.719 0.418,0.895 l 3.039,1.699 c 4.25,-0.711 8.223,-0.992 12.059,-1.254 c 5.816,-0.406 11.816,-0.82 17.175,-3.039 c 1.7,2.883 0.239,6.399 -1.062,9.524 l -0.609,1.503 c -8.032,11.903 -20.415,19.106 -33.043,19.106 c -1.2,0 -2.411,-0.063 -3.637,-0.191 c -3.52,-0.223 -7.035,-0.375 -10.551,-0.532 c -13.078,-0.57 -26.601,-1.16 -38.117,-5.34 c -2.586,-4.793 -1.418,-12.957 -0.395,-20.156 l 0.524,-3.824 c 22.633,-10.645 51.531,-30.207 57.992,-59.203 c 2.582,-6.324 3.223,-13.824 3.844,-21.082 c 1.16,-13.699 2.265,-26.641 15.328,-34.09 c 11.117,-11.098 18.695,-23.438 26.019,-35.367 c 1.563,-2.555 3.129,-5.102 4.731,-7.641 c 3.926,2.207 8.949,7.567 10.406,12.379 l 3.309,9.824 c 0.117,0.344 0.445,0.575 0.808,0.575 c 0.012,0 0.032,0 0.047,0 c 0.383,-0.024 0.703,-0.297 0.781,-0.672 c 1.379,-6.473 -1.336,-12.352 -3.961,-18.036 c -1.238,-2.679 -2.519,-5.453 -3.3,-8.187 c -8.821,-22.34 -7.387,-51.844 -6.121,-77.879 l 0.375,-7.93 c 0.019,-0.402 -0.25,-0.761 -0.641,-0.867 c -0.066,-0.012 -0.141,-0.023 -0.207,-0.023 c -0.32,0 -0.617,0.176 -0.762,0.472 c -3.144,6.36 -6.679,15.059 -8.078,21.247 c -1.344,-2.469 -3.516,-4.301 -5.633,-6.09 c -1.965,-1.653 -3.996,-3.368 -5.461,-5.606 c -0.16,-0.246 -0.433,-0.383 -0.711,-0.383 c -0.117,0 -0.234,0.024 -0.351,0.071 c -0.383,0.175 -0.582,0.597 -0.469,1.004 c 1.418,5.179 3.367,10.351 5.43,15.824 c 6.035,16.015 12.269,32.582 5.293,50.355 c -9.836,21.719 -22.094,48.801 -47.051,60.215 c -5.715,-0.18 -10.496,-2.664 -15.555,-5.297 c -3.925,-2.043 -7.98,-4.152 -12.703,-5.058 c -0.055,-0.012 -0.109,-0.016 -0.16,-0.016 c -0.234,0 -0.465,0.098 -0.625,0.273 c -0.203,0.223 -0.273,0.528 -0.191,0.813 c 1.961,6.902 7.773,9.5 13.394,12.012 c 6.43,2.875 12.504,5.59 13.055,14.496 c 1.308,28.969 -7.481,51.875 -26.113,68.066 c -15.582,11.207 -32.622,22.203 -53.856,22.203 c -0.43,0 -1.293,0.317 -1.344,0.746 c -0.05,0.43 -0.265,0.825 0.157,0.922 c 1.644,0.375 3.441,0.578 5.253,0.782 c 5.614,0.636 10.922,1.23 12.399,6.894 c -0.328,1.945 -0.293,4.063 -0.254,6.078 c 0.066,3.957 0.129,7.371 -2.559,10.758 c -8.437,-0.594 -17.191,-2.477 -26.464,-4.461 C 160.285,696.527 150,694.328 139.32,694.328 c -2.195,0 -4.418,0.09 -6.664,0.297 c -8.375,-1.371 -14.652,-7.227 -20.73,-12.891 c -2.617,-2.441 -5.313,-4.949 -8.184,-7.101 c 2.387,-0.574 4.688,-1.465 6.926,-2.324 c 3.766,-1.446 7.328,-2.817 11.164,-2.817" />
    <path
       inkscape:connector-curvature="0"
       id="path32"
       style="fill:#297ecb;fill-opacity:1;fill-rule:nonzero;stroke:none"
       d="m 247.301,722.121 c 3.804,0.5 7.738,1.02 11.547,1.02 c 3.359,0 6.265,-0.407 8.882,-1.235 l 20.883,-3.707 c 1.227,1.93 0.657,6.012 -0.437,8.836 c -9.367,1.895 -20.051,3.117 -31.153,3.117 c -11.773,0 -23.863,-1.437 -35.066,-4.156 c 3.668,-3.348 8.152,-4.863 14.324,-4.863 c 3.551,0 7.344,0.504 11.02,0.988" />
    <path
       inkscape:connector-curvature="0"
       id="path34"
       style="fill:#297ecb;fill-opacity:1;fill-rule:nonzero;stroke:none"
       d="m 525.449,417.184 c -0.644,-1.118 -1.371,-2.387 -3.152,-2.696 c -0.051,-0.011 -0.098,-0.015 -0.149,-0.015 c -0.218,0 -0.433,0.09 -0.593,0.246 c -0.196,0.191 -0.289,0.461 -0.246,0.734 c 1.105,7.137 3.687,23.84 -6.356,30.906 c -1.758,-0.593 -4.441,-0.808 -7.558,-0.808 c -3.586,0 -7.293,0.285 -10.993,0.566 c -3.652,0.285 -7.3,0.563 -10.82,0.563 c -7.738,0 -16.387,-1.172 -21.84,-9.871 c -0.156,-0.25 -1.355,-0.649 -1.648,-0.649 c -1.262,0 -1.848,1.031 -2.239,1.715 c -0.3,0.176 -0.933,1.199 -0.878,1.539 c 4.636,30.59 -4.454,57.191 -24.317,71.152 l -3.32,1.762 c -10.168,5.457 -21.692,11.641 -32.371,11.641 c -6.625,0 -12.071,-2.387 -16.649,-7.293 c -0.754,-10.774 0.125,-22.973 0.981,-34.77 c 2.027,-28.004 4.121,-56.961 -17.371,-78.84 c -2.106,-5.125 1.699,-7.468 7.328,-10.195 c 0.988,-0.476 1.922,-0.933 2.715,-1.391 c 0.14,0.016 0.281,0.024 0.429,0.024 c 0.848,0 1.782,-0.274 2.684,-0.535 c 0.965,-0.281 1.875,-0.543 2.746,-0.543 c 0.832,0 1.543,0.242 2.231,0.777 c 19.765,23.934 36.789,64.172 19.253,98.375 c -0.152,0.289 -0.117,0.649 0.086,0.906 c 0.164,0.211 0.411,0.329 0.672,0.329 c 0.063,0 0.125,-0.008 0.188,-0.02 c 3.828,-0.883 4.855,-3.973 5.847,-6.961 c 0.606,-1.84 1.235,-3.738 2.543,-5.039 c -0.132,-3.508 1.305,-5.789 2.821,-8.207 c 0.371,0.254 1.476,1.793 2.539,3.281 c 1.828,2.559 3.551,4.977 5.828,5.078 c 0.012,0 0.023,0 0.039,0 c 0.301,0 0.586,-0.16 0.734,-0.429 c 0.164,-0.278 0.149,-0.621 -0.023,-0.883 c -6.539,-10.004 -7.817,-22.278 -9.059,-34.141 c -1.273,-12.246 -2.597,-24.918 -9.609,-35.422 c -1.059,-4.199 -3.848,-8.078 -6.543,-11.836 c -3.629,-5.062 -7.07,-9.847 -6.965,-15.964 c 3.328,-2.27 6.906,-5.5 10.496,-8.743 c 11.656,-10.515 23.707,-21.394 38.606,-21.394 c 3.328,0 6.757,0.547 10.195,1.625 c 5.984,1.949 11.508,4.965 16.848,7.89 c 4.414,2.415 8.98,4.915 13.836,6.829 c 11.906,1.453 24.515,4.023 35.164,10.789 c 4.66,12.941 8.312,26.359 10.937,40.136 c -0.691,0.641 -1.433,1.243 -2.308,1.75 c 0.125,-0.461 -0.293,-1.191 -0.739,-1.968 z m -68.5,-33.106 c -5.972,-0.683 -12.152,-1.39 -17.133,-3.98 c -1.945,-0.535 -3.312,-2.071 -4.757,-3.696 c -1.762,-1.988 -3.594,-4.043 -6.383,-4.347 c -0.028,-0.004 -0.063,-0.004 -0.09,-0.004 c -0.398,0 -0.742,0.273 -0.832,0.664 c -0.84,3.781 1.676,5.785 3.898,7.558 c 1.297,1.032 2.52,2.008 3.192,3.286 c -0.84,3.507 -3.11,5.234 -7.672,5.234 c -1.895,0 -3.93,-0.281 -5.922,-0.555 c -1.98,-0.273 -3.926,-0.535 -5.648,-0.535 c -0.778,0 -1.508,0.047 -2.188,0.172 c -0.324,0.059 -0.582,0.293 -0.668,0.605 c -0.09,0.321 0.012,0.657 0.258,0.872 c 5.648,4.976 11.898,7.3 19.664,7.3 c 5.687,0 11.492,-1.265 17.109,-2.488 c 5.418,-1.18 11.028,-2.402 16.328,-2.402 c 5.79,0 10.481,1.406 14.774,4.422 c 0.148,0.105 0.316,0.156 0.488,0.156 c 0.215,0 0.43,-0.078 0.59,-0.242 c 0.293,-0.282 0.344,-0.731 0.125,-1.075 c -5.707,-8.722 -15.582,-9.851 -25.133,-10.945" />
    <path
       inkscape:connector-curvature="0"
       id="path36"
       style="fill:#297ecb;fill-opacity:1;fill-rule:nonzero;stroke:none"
       d="m 474.141,355.141 c -5.039,-2.438 -10.235,-4.965 -13.629,-9.243 l 1.699,-0.375 c 8.965,-2.003 18.234,-4.066 27.437,-4.066 c 4.75,0 8.938,0.629 12.848,1.766 c 4.32,8.187 8.219,16.632 11.688,25.293 c -10.145,-5.493 -21.063,-8.641 -32.141,-9.004 c -2.141,-1.567 -5.016,-2.969 -7.902,-4.371" />
    <path
       inkscape:connector-curvature="0"
       id="path38"
       style="fill:#297ecb;fill-opacity:1;fill-rule:nonzero;stroke:none"
       d="m 394.984,701.34 c 3.121,-3.879 7.911,-5.789 12.961,-7.652 c -4.25,2.66 -8.554,5.23 -12.961,7.652" />
    <path
       inkscape:connector-curvature="0"
       id="path40"
       style="fill:#297ecb;fill-opacity:1;fill-rule:nonzero;stroke:none"
       d="m 326.254,706.84 c -4.211,0 -8.625,-0.551 -13.125,-1.637 c -0.645,-0.914 -2.07,-1.375 -3.449,-1.824 c -0.742,-0.238 -1.481,-0.469 -2.125,-0.828 c -1.528,-2.867 0.574,-5.254 3.011,-8.02 c 0.504,-0.57 1.008,-1.14 1.465,-1.715 c 1.555,-1.668 3.219,-2.464 5.192,-2.464 c 2.015,0 4.14,0.82 6.382,1.691 c 2.516,0.969 5.118,1.977 7.911,1.977 c 1.699,0 3.265,-0.368 4.797,-1.129 c 0.207,-0.102 0.363,-0.278 0.433,-0.493 c 0.07,-0.214 0.051,-0.449 -0.051,-0.656 c -1.84,-3.633 -5.675,-4.363 -9.375,-5.07 c -4.359,-0.832 -8.125,-1.555 -8.664,-6.621 c -0.261,-8.215 4.461,-13.727 9.606,-18.449 c 2.972,0.199 5.343,1.324 7.851,2.519 c 1.653,0.789 3.356,1.598 5.176,2.047 c 4.649,0.84 9.301,1.242 14.277,1.242 c 11.957,0 23.536,-2.39 34.731,-4.695 c 3.367,-0.692 6.711,-1.387 10.047,-2.008 l 2.265,0.035 c 11.336,0 20.793,-1.336 28.852,-4.09 c -0.625,3.176 -3.723,6.805 -6.488,10.047 c -0.793,0.922 -1.563,1.828 -2.266,2.699 c -0.148,0.184 -0.211,0.418 -0.184,0.645 c 0.036,0.23 0.157,0.437 0.344,0.578 l 0.906,0.664 c 0.149,0.106 0.329,0.16 0.504,0.16 c 0.094,0 0.192,-0.015 0.286,-0.047 c 6.843,-2.414 11.023,-7.574 15.062,-12.566 c 4.887,-6.035 9.508,-11.738 18.438,-11.996 c 5.093,-4.09 10.316,-7.77 15.593,-11.238 c -8.89,10.941 -18.617,21.16 -29.105,30.566 c -23.699,9.621 -48.25,18.84 -74.942,21.352 c -14.675,11.675 -27.418,19.324 -43.355,19.324" />
    <path
       inkscape:connector-curvature="0"
       id="path42"
       style="fill:#297ecb;fill-opacity:1;fill-rule:nonzero;stroke:none"
       d="m 532.027,493.246 c -2.91,-1.449 -5.902,-2.57 -9.058,-2.57 c -0.379,0 -0.961,0.258 -1.063,0.617 c -0.109,0.367 -0.207,0.762 0.117,0.965 c 3.422,2.129 6.504,4.305 9.383,6.508 c -1.961,16.875 -5.457,33.281 -10.426,49.039 c -1.898,-1.418 -3.777,-2.879 -5.617,-4.328 c -9.523,-7.5 -19.371,-15.254 -32.55,-15.254 c -0.399,0 -0.801,0.004 -1.208,0.019 c 0.254,-2.558 0.778,-5.355 1.321,-8.265 c 1.679,-9.039 3.578,-19.278 -1.481,-27.043 c -0.16,-0.243 -0.429,-0.383 -0.711,-0.383 c -0.093,0 -0.191,0.012 -0.277,0.047 c -0.375,0.129 -0.609,0.492 -0.57,0.879 c 1.195,12.589 -4.004,22.941 -9.028,32.949 c -5.418,10.793 -11.019,21.953 -8.363,35.687 c 0.594,0.817 1.199,1.446 2.047,1.446 c 0.262,-0.118 1.133,-0.516 1.172,-0.805 c 1.324,-9.316 4.398,-18.063 9.144,-26 c 1.973,-0.414 4.723,-0.816 7.715,-0.816 c 8.856,0 18.36,3.539 24.199,9.019 c 6.665,5.703 8.981,13.836 6.227,21.785 c -3.574,8.418 -10.895,12.653 -18.645,17.129 c -3.796,2.199 -7.722,4.469 -11.117,7.274 c -21.711,18.777 -49.351,28.293 -82.164,28.293 c -1.453,0 -2.918,-0.012 -4.383,-0.051 c -5.203,-2.168 -10.007,-5.516 -13.238,-9.348 c -0.16,-0.195 -0.402,-0.301 -0.648,-0.301 c -0.071,0 -0.137,0.008 -0.207,0.024 c -0.317,0.078 -0.559,0.332 -0.625,0.648 c -0.36,1.699 0.054,3.535 0.492,5.485 c 0.586,2.585 1.187,5.265 -0.063,7.679 c -7.625,2.008 -15.14,7.453 -18.629,13.453 c -0.16,0.282 -0.148,0.633 0.04,0.907 c 0.156,0.23 0.421,0.367 0.699,0.367 c 0.043,0 0.093,-0.004 0.136,-0.008 c 3.965,-0.652 7.696,-2.805 11.645,-5.086 c 3.613,-2.082 7.355,-4.242 11.238,-5.102 c 3.871,0.297 7.949,0.434 11.981,0.434 c 38.414,0 70.738,-12.406 96.07,-36.875 c 2.856,-0.457 5.746,-1.508 8.559,-2.902 c -4.649,9.086 -9.762,17.89 -15.387,26.336 c -7.738,3.043 -15.766,5.05 -24.418,5.765 c -0.406,0.032 -0.727,0.344 -0.777,0.75 c -0.125,1.102 0.062,1.922 0.582,2.508 c 0.695,0.777 1.75,0.883 2.687,0.883 l 1.938,-0.906 l 0,0.847 c 0.914,0 1.445,0.133 1.714,0.426 c -5.023,8.024 -14.269,11.949 -23.203,15.746 c -4.336,1.848 -8.824,3.75 -12.793,6.219 l -5.894,1.078 c -8.094,1.598 -16.469,3.25 -24.805,3.25 c -6.195,0 -11.597,-0.918 -16.519,-2.805 c -1.571,0.356 -2.246,1.059 -2.555,2.024 c -0.313,0.988 -0.188,2.082 0.129,2.988 c -3.887,0.496 -7.902,1.356 -12.125,2.262 c -6.594,1.422 -13.414,2.887 -19.942,2.887 c -7.363,0 -13.355,-1.926 -18.328,-5.883 c -0.109,-5.344 2.754,-9.676 5.782,-14.254 c 2.132,-3.235 4.339,-6.567 5.316,-10.524 c 14.551,-32.894 25.016,-64.207 31.937,-95.601 c 1.399,-2.168 4.036,-3.348 7.965,-3.348 c 2.528,0 5.18,0.485 7.672,1 c 6.321,4.02 9.672,11.113 13.211,18.617 c 2.586,5.481 5.254,11.145 9.336,15.743 c 10.953,9.441 12.152,22.019 12.492,35.164 c 0.008,0.316 0.188,0.601 0.473,0.742 c 0.117,0.058 0.25,0.086 0.375,0.086 c 0.176,0 0.351,-0.055 0.5,-0.16 c 6.273,-4.516 5.703,-14.399 5.105,-21.383 c 0.871,0.015 1.766,0.051 2.692,0.082 c 1.426,0.051 2.926,0.109 4.457,0.109 c 5.246,0 11.789,-0.617 15.816,-5.375 c 0.196,-0.226 0.254,-0.543 0.156,-0.828 c -0.101,-0.281 -0.343,-0.492 -0.636,-0.555 c -2.403,-0.492 -5.145,-0.562 -7.512,-0.562 l -5.035,0.035 c -6.84,0 -13.785,-0.531 -16.988,-6.898 c -7.348,-9.93 -14.864,-20.059 -14.911,-32.633 c 4.415,-3.039 9.754,-5.735 15.411,-8.586 c 7.531,-3.797 15.324,-7.727 21.785,-14.32 c 14.23,-14.887 18.285,-34.196 21.222,-52.7 c 2.5,-1.914 6.516,-3.035 12.356,-3.035 c 2.105,0 4.191,0.129 6.125,0.258 c 1.703,0.109 3.297,0.215 4.687,0.215 c 12.164,0.847 25.993,2.656 36.5,9.582 c 0.141,0.097 0.305,0.144 0.469,0.144 c 0.188,0 0.379,-0.066 0.535,-0.191 c 0.289,-0.238 0.391,-0.633 0.25,-0.977 c -1.015,-2.504 -3.867,-4.906 -6.89,-7.445 c -1.141,-0.961 -2.289,-1.93 -3.309,-2.887 c 6.406,-5.05 7.719,-12.589 8.992,-19.894 c 0.032,-0.176 0.063,-0.344 0.094,-0.52 c 1.539,11.575 2.406,23.364 2.406,35.36 c 0,8.656 -0.449,17.207 -1.254,25.648" />
  </g>
</svg>
